<svg width="750" height="750" viewBox="0 0 750 750" fill="none" xmlns="http://www.w3.org/2000/svg">
<path d="M375 750C582.107 750 750 582.107 750 375C750 167.893 582.107 0 375 0C167.893 0 0 167.893 0 375C0 582.107 167.893 750 375 750Z" fill="#1E2733"/>
<path d="M370.588 204H379.412V277.529H370.588V204Z" fill="#D9AF7D"/>
<path d="M341.176 236.353H408.824V245.176H341.176V236.353Z" fill="#D9AF7D"/>
<path d="M276.471 236.353H291.176V342.235H276.471V236.353Z" fill="#D9AF7D"/>
<path d="M232.353 283.412H335.294V298.118H232.353V283.412Z" fill="#D9AF7D"/>
<path d="M458.823 236.353H473.529V342.235H458.823V236.353Z" fill="#D9AF7D"/>
<path d="M414.706 283.412H514.706V298.118H414.706V283.412Z" fill="#D9AF7D"/>
<path d="M505.882 336.353H520.588V412.823H505.882V336.353Z" fill="#D9AF7D"/>
<path d="M476.471 368.706H550V380.471H476.471V368.706Z" fill="#D9AF7D"/>
<path d="M458.823 404H473.529V509.882H458.823V404Z" fill="#D9AF7D"/>
<path d="M414.706 451.059H514.706V462.824H414.706V451.059Z" fill="#D9AF7D"/>
<path d="M367.647 468.706H379.412V545.176H367.647V468.706Z" fill="#D9AF7D"/>
<path d="M338.235 504H408.824V512.824H338.235V504Z" fill="#D9AF7D"/>
<path d="M364.706 312.824H382.353V436.353H364.706V312.824Z" fill="#D9AF7D"/>
<path d="M317.647 365.765H432.353V383.412H317.647V365.765Z" fill="#D9AF7D"/>
<path d="M229.412 342.235H238.235V409.882H229.412V342.235Z" fill="#D9AF7D"/>
<path d="M200 371.647H267.647V380.471H200V371.647Z" fill="#D9AF7D"/>
<path d="M276.471 404H291.176V509.882H276.471V404Z" fill="#D9AF7D"/>
<path d="M232.353 451.059H335.294V462.824H232.353V451.059Z" fill="#D9AF7D"/>
</svg>
