<svg width="750" height="750" viewBox="0 0 750 750" fill="none" xmlns="http://www.w3.org/2000/svg">
<path fill-rule="evenodd" clip-rule="evenodd" d="M750 375C750 582.107 582.107 750 375 750C167.893 750 0 582.107 0 375C0 167.893 167.893 0 375 0C582.107 0 750 167.893 750 375ZM379.412 236.353V204H370.588V236.353H341.176V245.177H370.588V277.529H379.412V245.177H408.824V236.353H379.412ZM276.471 236.353H291.176V283.412H335.294V298.118H291.176V342.235H276.471V298.118H232.353V283.412H276.471V236.353ZM458.823 236.353H473.529V283.412H514.706V298.118H473.529V342.235H458.823V298.118H414.706V283.412H458.823V236.353ZM505.882 336.353H520.588V368.706H550V380.471H520.588V412.823H505.882V380.471H476.471V368.706H505.882V336.353ZM458.823 404H473.529V451.059H514.706V462.824H473.529V509.882H458.823V462.824H414.706V451.059H458.823V404ZM367.647 468.706H379.412V504H408.824V512.824H379.412V545.176H367.647V512.824H338.235V504H367.647V468.706ZM364.706 312.824H382.353V365.765H432.353V383.412H382.353V436.353H364.706V383.412H317.647V365.765H364.706V312.824ZM229.412 342.235H238.235V371.647H267.647V380.471H238.235V409.882H229.412V380.471H200V371.647H229.412V342.235ZM276.471 404H291.176V451.059H335.294V462.824H291.176V509.882H276.471V462.824H232.353V451.059H276.471V404Z" fill="white"/>
</svg>
